<?xml version="1.0" encoding="UTF-8"?>
<svg id="uuid-2b357e6b-96f9-4094-88e3-e879bac24a9f" data-name="Layer 1" xmlns="http://www.w3.org/2000/svg" viewBox="0 0 30 30">
  <defs>
    <style>
      .uuid-1b777de6-690c-42d5-91af-abe1ba2737d8 {
        fill: #fff;
      }

      .uuid-1b777de6-690c-42d5-91af-abe1ba2737d8, .uuid-13630d9f-59c0-40e2-a9d7-1560de0c21e7 {
        stroke-width: 0px;
      }

      .uuid-13630d9f-59c0-40e2-a9d7-1560de0c21e7 {
        fill: #231f20;
      }
    </style>
  </defs>
  <g id="uuid-d2802326-1c6d-4f77-bbc3-3b0ff3c52740" data-name="home">
    <g>
      <path class="uuid-1b777de6-690c-42d5-91af-abe1ba2737d8" d="m15,6.78l10.48,6.67v12.61h-7.63l-.2-3.78c-.07-1.41-1.24-2.51-2.65-2.51h0c-1.41,0-2.57,1.1-2.65,2.51l-.2,3.77h-7.64v-11.7l10.48-7.58Z"/>
      <path class="uuid-13630d9f-59c0-40e2-a9d7-1560de0c21e7" d="m15,6.78c3.2,1.96,7.61,4.54,10.75,6.51.05,4.25.13,8.51.15,12.76,0,0,0,.43,0,.43h-.43s-7.63.04-7.63.04c0,0-.44,0-.44,0,0-.1-.24-4.09-.25-4.32-.29-2.56-4.02-2.56-4.31,0-.01.24-.25,4.2-.25,4.32,0,0-.44,0-.44,0,0,0-7.63-.03-7.63-.03h-.43s0-.43,0-.43c.02-3.95.1-7.9.15-11.85,3.61-2.54,7.23-5.01,10.76-7.43h0Zm0,0c-3.49,2.66-6.9,5.27-10.31,7.81,0,0,.12-.23.12-.23.05,3.9.12,7.8.14,11.7l-.43-.43,7.63-.03-.46.44.19-3.92c.42-3.76,5.81-3.75,6.23,0,0,0,.2,3.92.2,3.92l-.46-.44,7.63.03-.43.43c.02-4.2.1-8.41.15-12.61l.13.23c-1.71-1.11-3.41-2.27-5.13-3.42l-5.2-3.49h0Z"/>
    </g>
    <path class="uuid-13630d9f-59c0-40e2-a9d7-1560de0c21e7" d="m29.25,14.75c-4.98-3.29-9.79-6.82-14.55-10.41,0,0,.6,0,.6,0-2.38,1.79-4.76,3.58-7.19,5.31-2.13,1.53-5.18,3.69-7.36,5.1,1.93-1.71,4.86-4.07,6.89-5.71,2.42-1.95,4.89-3.84,7.36-5.73,4.84,3.7,9.64,7.45,14.25,11.44h0Z"/>
    <path class="uuid-13630d9f-59c0-40e2-a9d7-1560de0c21e7" d="m8.83,8.62c-.25-1.44-.35-2.88-.43-4.32l.43.43c-1.14.05-2.29.08-3.43.07l.49-.5c.01,2.29-.05,4.57-.39,6.85-.44-2.43-.56-4.87-.61-7.33,1.46-.02,2.93.01,4.39.08-.09,1.58-.18,3.15-.45,4.72h0Z"/>
  </g>
</svg>